<?xml version="1.0" encoding="utf-8"?>
<!-- Generator: Adobe Illustrator 15.0.0, SVG Export Plug-In . SVG Version: 6.00 Build 0)  -->
<!DOCTYPE svg PUBLIC "-//W3C//DTD SVG 1.1//EN" "http://www.w3.org/Graphics/SVG/1.1/DTD/svg11.dtd">
<svg version="1.1" id="Layer_5" xmlns="http://www.w3.org/2000/svg" xmlns:xlink="http://www.w3.org/1999/xlink" x="0px" y="0px"
	 width="2445.134px" height="2008px" viewBox="0 0 2445.134 2008" enable-background="new 0 0 2445.134 2008" xml:space="preserve">
<g>
	<path fill="#75B96F" stroke="#009345" stroke-miterlimit="10" d="M1146.742,1548.764c4.904-23.947,11.631-47.461,20.116-70.385
		c2.007-5.42,4.136-10.794,6.337-16.138c1.846-4.479-1.425,3.319,0.473-1.134c0.564-1.325,1.141-2.646,1.717-3.965
		c1.343-3.077,2.731-6.133,4.138-9.181c5.011-10.86,10.466-21.512,16.243-31.982c11.552-20.937,24.658-40.998,38.895-60.202
		c1.713-2.312,3.453-4.604,5.201-6.889c-2.507,3.276,0.432-0.552,0.791-1.011c0.886-1.136,1.781-2.265,2.676-3.394
		c3.885-4.9,7.865-9.723,11.9-14.498c7.795-9.222,15.895-18.183,24.207-26.938c16.779-17.677,34.602-34.352,53.137-50.171
		c4.483-3.827,9.022-7.588,13.594-11.31c2.291-1.864,4.597-3.71,6.908-5.549c1.157-0.92,2.319-1.834,3.481-2.747
		c0.545-0.429,5.502-4.275,2.299-1.805c9.794-7.556,19.782-14.858,29.902-21.97c40.8-28.669,84.107-53.707,128.816-75.745
		c12.96-6.388,26.06-12.488,39.26-18.362c8.718-3.88,10.694-16.403,6.277-23.943c-5.211-8.896-15.228-10.156-23.943-6.277
		c-91.472,40.704-178.3,93.565-252.229,161.443c-72.438,66.509-130.655,148.983-160.951,243.045
		c-5.263,16.34-9.552,32.986-12.995,49.802c-1.912,9.337,2.574,18.873,12.223,21.527
		C1133.941,1563.387,1144.827,1558.112,1146.742,1548.764L1146.742,1548.764z"/>
</g>
<g>
	<path fill="#75B96F" stroke="#009345" stroke-miterlimit="10" d="M1151.633,1556c8.117-132.561,8.517-265.414,8.533-398.175
		c0.004-30.904,0.695-61.636,3.795-92.406c0.711-7.061,1.548-14.107,2.458-21.145c0.745-5.756-0.476,3.399,0.321-2.34
		c0.242-1.743,0.496-3.485,0.75-5.227c0.591-4.052,1.227-8.097,1.882-12.139c2.321-14.336,5.084-28.599,8.159-42.79
		c12.321-56.859,30.537-112.255,50.877-166.698c13.351-35.737,27.676-71.102,42.066-106.429c3.604-8.85-3.844-19.223-12.223-21.527
		c-10.021-2.757-17.932,3.396-21.527,12.223c-44.394,108.987-88.202,219.437-104.215,336.775
		c-4.195,30.737-6.748,61.615-7.258,92.641c-0.541,32.9-0.077,65.837-0.164,98.742c-0.178,66.369-0.788,132.743-2.712,199.088
		c-1.252,43.161-3.104,86.307-5.743,129.406c-0.584,9.531,8.402,17.5,17.5,17.5C1144.113,1573.5,1151.05,1565.518,1151.633,1556
		L1151.633,1556z"/>
</g>
<g>
	<path fill="#75B96F" stroke="#009345" stroke-miterlimit="10" d="M1151.633,1556c1.775-42.795-6.229-85.896-27.515-123.378
		c-19.181-33.776-48.559-60.621-81.386-80.847c-70.579-43.482-156.158-58.852-237.272-68.191c-8.478-0.977-16.966-1.853-25.46-2.665
		c-9.513-0.91-17.5,8.649-17.5,17.5c0,10.227,8.008,16.592,17.5,17.5c10.127,0.969,20.243,2.04,30.346,3.235
		c4.907,0.58,9.809,1.198,14.707,1.842c4.302,0.565-4.04-0.551,0.262,0.035c1.23,0.167,2.459,0.339,3.688,0.51
		c2.872,0.401,5.741,0.82,8.61,1.246c20.513,3.046,40.927,6.777,61.151,11.369c19.859,4.51,39.514,9.955,58.778,16.567
		c4.521,1.552,9.011,3.188,13.479,4.883c2.217,0.84,4.423,1.708,6.625,2.585c1.097,0.438,2.189,0.883,3.282,1.33
		c4.647,1.897-1.596-0.702,1.242,0.507c8.882,3.782,17.604,7.938,26.146,12.434c8.329,4.384,16.439,9.179,24.309,14.342
		c3.711,2.435,7.346,4.984,10.926,7.606c0.89,0.651,1.77,1.314,2.65,1.978c3.14,2.365-3.152-2.47-0.061-0.052
		c2.012,1.574,3.986,3.194,5.945,4.833c6.933,5.802,13.47,12.067,19.607,18.702c2.931,3.168,5.731,6.454,8.446,9.809
		c0.651,0.806,3.03,3.865-0.069-0.148c0.66,0.855,1.306,1.721,1.951,2.587c1.508,2.024,2.958,4.091,4.383,6.175
		c5.147,7.528,9.661,15.479,13.625,23.689c0.969,2.006,1.881,4.038,2.775,6.078c1.604,3.658-1.544-3.752-0.024-0.042
		c0.428,1.045,0.837,2.097,1.245,3.149c1.8,4.633,3.37,9.352,4.799,14.11c2.877,9.585,4.918,19.407,6.361,29.305
		c-0.726-4.978-0.091-0.649,0.027,0.31c0.154,1.255,0.287,2.514,0.421,3.771c0.271,2.553,0.477,5.113,0.663,7.674
		c0.416,5.734,0.58,11.486,0.603,17.234c0.016,4.145-0.097,8.288-0.269,12.428c-0.396,9.537,8.26,17.5,17.5,17.5
		C1143.972,1573.5,1151.237,1565.528,1151.633,1556L1151.633,1556z"/>
</g>
<path fill="#8AC284" stroke="#009345" stroke-miterlimit="10" d="M1105.555,1544.496c0,6.628,5.372,12,12,12h41.997
	c6.627,0,12-5.372,12-12v-41.997c0-6.627-5.373-12-12-12h-41.997c-6.628,0-12,5.373-12,12V1544.496z"/>
<path fill="#75B96F" stroke="#009345" stroke-miterlimit="10" d="M1049.057,1715.491c0-6.628,5.373-12,12-12h19.5
	c6.627,0,12,5.372,12,12v198.735c0,6.628-5.373,12-12,12h-19.5c-6.627,0-12-5.372-12-12V1715.491z"/>
<path fill="#75B96F" stroke="#009345" stroke-miterlimit="10" d="M1190.8,1715.491c0-6.628,5.373-12,12-12h19.5
	c6.627,0,12,5.372,12,12v198.735c0,6.628-5.373,12-12,12h-19.5c-6.627,0-12-5.372-12-12V1715.491z"/>
<path fill="#8AC284" stroke="#009345" stroke-miterlimit="10" d="M1106.056,1844.48c0,6.627-5.372,12-12,12h-44.997
	c-6.627,0-12-5.373-12-12v-121.493c0-6.628,5.373-12,12-12h44.997c6.628,0,12,5.372,12,12V1844.48z"/>
<path fill="#8AC284" stroke="#009345" stroke-miterlimit="10" d="M1247.049,1844.48c0,6.627-5.372,12-12,12h-44.997
	c-6.627,0-12-5.373-12-12v-121.493c0-6.628,5.373-12,12-12h44.997c6.628,0,12,5.372,12,12V1844.48z"/>
<path fill="#8AC284" stroke="#009345" stroke-miterlimit="10" d="M1104.556,1947.976c0,6.628-5.372,12-12,12h-43.497
	c-6.627,0-12-5.372-12-12v-43.497c0-6.627,5.373-12,12-12h43.497c6.628,0,12,5.373,12,12V1947.976z"/>
<path fill="#8AC284" stroke="#009345" stroke-miterlimit="10" d="M1246.299,1947.976c0,6.628-5.372,12-12,12h-43.497
	c-6.627,0-12-5.372-12-12v-43.497c0-6.627,5.373-12,12-12h43.497c6.628,0,12,5.373,12,12V1947.976z"/>
<path fill="#8AC284" stroke="#009345" stroke-miterlimit="10" d="M1072,1914c-28.816,0-52.355,22.572-53.913,51h107.826
	C1124.355,1936.572,1100.816,1914,1072,1914z"/>
<path fill="#8AC284" stroke="#009345" stroke-miterlimit="10" d="M1213.667,1914.333c-28.816,0-52.355,22.572-53.913,51h107.826
	C1266.022,1936.905,1242.483,1914.333,1213.667,1914.333z"/>
<path fill="#8AC284" stroke="#009345" stroke-miterlimit="10" d="M896.34,1320.542c12.065-26.168,1.424-56.995-23.74-70.313
	l-45.148,97.919C853.919,1358.637,884.274,1346.711,896.34,1320.542z"/>
<path fill="#8AC284" stroke="#009345" stroke-miterlimit="10" d="M1157.541,986.054c27.312,9.185,56.818-4.706,67.356-31.155
	l-102.201-34.37C1115.11,947.97,1130.228,976.868,1157.541,986.054z"/>
<path fill="#8AC284" stroke="#009345" stroke-miterlimit="10" d="M1320.764,1228.899c10.245,26.933,39.708,40.91,66.834,32.26
	l-38.33-100.782C1323.249,1171.938,1310.52,1201.964,1320.764,1228.899z"/>
<g>
	<path fill="#C69E71" d="M1863.041,945.228c0,0-42.896,146.127-48.859,181.21c0,0,0.471,124.617-91.4,219.097
		c0,0-27.816,99.949-103.621,110.529c0,0-196.324-16.528-265.402-243.665c0,0-22.33-59.748-24.312-79.938
		c0,0-66.42-26.959-44.766-147.203l64.713-19.679l55.598-213.741l102.957-85.375l164.332,20.72l129.402,56.297
		c0,0,58.451,82.783,61.816,93.856C1866.869,848.412,1863.041,945.228,1863.041,945.228z"/>
	<path fill="#B89369" d="M1417.908,922.381c-32.814-34.11-75.348-50.589-119.521-63.248
		c6.361-29.713,36.764-140.079,142.877-178.317c0,0,258.686-47.516,297.809-90.57c0,0,40.365,53.499,69.963,58.346
		c1.932,0.316,3.596,0.982,5.055,1.914c18.266,92.982,43.824,185.037,64.859,276.632c-7.619,9.643-16.812,19.851-28.084,30.698
		c0,0-6.598-153.782-65.605-149.685c-5.469,0.377-10.791,0.573-15.967,0.636c-13.793,0.617-117.535,7.755-142.748,85.02
		c0,0-26.695-3.988-35.707-37.787c0,0-41.672,24.018-34.561,59.155c0,0-72.252-39.155-56.988-128.524
		c-13.707,3.627-27.227,15.338-32.08,45.527c-9.303,57.908-12.1,72.596-41.678,100.888
		C1423.691,929.383,1421.186,925.784,1417.908,922.381z"/>
	<path fill="#B89369" d="M1334.846,846.548c10.307,10.195,20.23,21.355,29.566,33.94c21.566,29.077,44.648,32.739,62.166,21.892
		c4.33,61.852,6.699,150.403-7.93,212.438c0,0-51.572-138.855-122.523-171.615C1316.969,915.347,1329.432,881.619,1334.846,846.548z
		"/>
	<path fill="none" stroke="#705D1F" stroke-miterlimit="10" d="M1687.432,1024.173c0,0,12.24,53.914,32.254,106.051
		c0,0,11.365,38.128-22.787,48.516c0,0-61.32,18.651-78.352-17.756"/>
	<path fill="#B89369" d="M1717.738,1247.26c0,0-105.816,7.227-165.385-24.561C1552.354,1222.699,1627.531,1315.54,1717.738,1247.26z
		"/>
	<path fill="#231F20" d="M1275.729,805.405c0,0,14.811-170.09,141.867-217.223c0,0,269.492-43.746,308.34-93.773
		c0,0,45.295,66.896,76.67,74.337c31.379,7.443,2.902,105.265,72.346,101.131c69.438-4.134-32.541,111.796,9.992,128.585
		c42.529,16.779,46.477,70.777-21.902,146.766c0,0-15.121-186.463-76.949-184.643c-5.729,0.168-11.309,0.113-16.754-0.076
		c-14.482,0.004-123.178,3.131-145.584,95.304c0,0-28.285-6.249-39.551-47.638c0,0-42.551,26.863-33.197,69.76
		c0,0-78.07-51.225-66.764-158.572c-14.217,3.65-27.816,17.105-31.307,53.381c-7.996,83.104-9.379,92.014-58.953,141.061
		c0,0,10.945,111.311-10.576,177.292c0,0-39.525-102.614-98.727-105.839C1284.68,985.257,1286.365,840.386,1275.729,805.405z"/>
	<path fill="#0D0D0D" d="M1403.664,813.776c-0.832-2.123-1.277-4.698-1.166-7.727c2.035-55.323-3.295-116.228-31.139-159.417
		c-1.82-2.825-3.703-5.54-5.637-8.159c-52.678,48.826-60.293,158.207-60.293,158.207c5.836,29.003,3.846,147.672,3.846,147.672
		c33.811,4.514,55.676,89.856,55.676,89.856c12.762-53.397,7.291-144.959,7.291-144.959
		C1394.328,859.499,1399.91,848.333,1403.664,813.776z"/>
	<path fill="#0D0D0D" d="M1570.402,773.155c12.178-36.613,45.48-66.367,77.229-89.89c36.029-26.692,73.531-52.987,112.41-76.54
		c-2.076-2.99-4.723-5.119-8.342-5.938c-25.18-5.664-62.562-53.072-62.562-53.072c-30.1,34.363-244.438,60.889-244.438,60.889
		c-0.463,0.146-0.912,0.308-1.371,0.453c0.512,0.463,1.035,0.918,1.543,1.386c28.404,26.472,44.457,58.181,52.262,91.68
		c1.049-0.354,2.102-0.655,3.17-0.876c-0.467,4.922-0.611,9.669-0.508,14.26c1.215,7.226,2.084,14.498,2.635,21.807
		c11.199,50.625,54.062,75.705,54.062,75.705C1551.555,794.998,1561.568,781.274,1570.402,773.155z"/>
	<path fill="#1A1A1A" d="M1654,976.667c0,0,11.312,23.283-8.406,30.747c0,0-43.354-8.643-110.059-25.978
		c0,0-31.283-3.195-53.197,5.101c0,0,8.703-23.341,52.832-32.527C1535.17,954.01,1626.807,964.411,1654,976.667z"/>
	<path fill="#1A1A1A" d="M1699.604,1030.465c0,0,28.158-45.749,62.977-43.892c0,0,61.332,4.339,82.898,16.22l5.807,15.346
		C1851.285,1018.139,1748.496,1001.941,1699.604,1030.465z"/>
	<path d="M1870.383,1031.899c1.803-5.626,2.135-11.517,2.4-17.439c-50.371-5.629-94.83-14.576-138.682-11.615
		c-20.25,1.347-39.967,9.69-59.684,7.763c-27.027-2.644-52.652-18.258-82.598-23.626c-37.986-6.957-85.316-10.358-125.012-12.775
		c-7.449,21.146,6.791,22.654,13.414,31.028c-2.307,34.802,0.578,65.382,22.268,78.771c16.191,9.938,88.389,21.243,110.348,15.077
		c27.008-7.614,28.34-66.816,59.457-63.068c29.818,3.526,22.625,60.815,46.566,72.327c24.656,11.717,94.039,10.965,111.195,4.44
		c25.945-9.863,31.25-40.107,34.711-70.561c0.572-2.781,2.508-3.858,4.859-4.424
		C1869.496,1035.98,1869.707,1034.015,1870.383,1031.899z M1613.828,1087.145c-21.969,10.229-95.67-0.557-111.934-15.375
		c-18.719-17.207-15.939-51.225-7.59-82.548c14.705-3.428,28.242-2.271,46.318-0.51c35.154,3.4,94.381,9.107,101.018,32.393
		C1648.123,1043.773,1629.311,1079.88,1613.828,1087.145z M1827.602,1104.188c-16.727,6.97-85.35,4.827-104.723-5.684
		c-14.094-7.752-29.912-49.749-19.521-71.465c14.988-31.335,116.375-9.357,150.164-2.583
		C1857.277,1059.984,1851.84,1094.131,1827.602,1104.188z"/>
	<polygon points="1466.889,974.173 1396.359,954.01 1383.854,964.091 1480.801,1005.045 1482.338,986.537 	"/>
	<path opacity="0.78" d="M1827.602,1104.188c24.238-10.057,29.676-44.203,25.92-79.731c-33.789-6.774-135.176-28.752-150.164,2.583
		c-10.391,21.716,5.428,63.713,19.521,71.465C1742.252,1109.015,1810.875,1111.157,1827.602,1104.188z"/>
	<path opacity="0.78" d="M1540.623,988.712c-18.076-1.762-31.613-2.918-46.318,0.51c-8.35,31.323-11.129,65.341,7.59,82.548
		c16.264,14.818,89.965,25.604,111.934,15.375c15.482-7.265,34.295-43.371,27.812-66.04
		C1635.004,997.819,1575.777,992.112,1540.623,988.712z"/>
</g>
<path fill="#75B96F" stroke="#009345" stroke-miterlimit="10" d="M1322.844,1561.745c11.156,0,20.202,5.373,20.202,12v19.5
	c0,6.627-9.046,12-20.202,12H988.266c-11.156,0-20.202-5.373-20.202-12v-19.5c0-6.627,9.046-12,20.202-12H1322.844z"/>
<g>
	<path fill="#C69E71" d="M396.416,855.05c0,0-36.658,143.812,16.92,234.046c0,0,2.818,31.018,0,47.938
		c-2.82,16.918,28.197,129.711,50.756,166.368s76.135,101.514,78.955,129.712c2.82,28.199,53.576,107.153,166.369,36.657
		c0,0,197.387-143.811,200.209-307.359c0,0,45.115-19.739,36.656-76.135c0,0,25.379-129.712-22.559-132.533
		C923.723,953.743,596.623,553.328,396.416,855.05z"/>
	<path fill="#413000" d="M583.934,1379.536c0,0,18.33,8.46,42.299,0c0,0-8.416,62.318,14.1,87.415c0,0,26.787,18.328,84.594-31.018
		c0,0,2.818,62.036-112.793,76.136c0,0-63.281,0.423-67.594-71.694c0,0,15.426,33.626,43.625,25.166
		C588.164,1465.541,581.115,1451.442,583.934,1379.536z"/>
	<path fill="#B89369" d="M531.768,1328.221c0,0,16.92-7.559,21.148-10.582c4.23-3.021,23.969,10.582,35.248,5.293
		c11.279-5.293,21.148-7.692,32.428-5.733c11.279,1.955,56.396,2.737,67.676-0.678c11.279-3.414-11.279,3.415-11.279,3.415
		S578.295,1350.895,531.768,1328.221z"/>
	<path fill="#B89369" d="M531.758,1327.915c0,0-1.281,36.244,70.738,38.99c0,0,40.754-3.688,80.057-50.533
		C682.553,1316.372,613.328,1349.485,531.758,1327.915z"/>
	<path fill="#483700" d="M567.104,1033.872l5.637,44.555c0,0,49.348-26.496,81.143-55.537c0,0,28.129-13.091,83.867-10.615
		c0,0-10.014-11.833-30.936-19.907l-34.725-7.52L567.104,1033.872z"/>
	<path fill="none" stroke="#705D1F" stroke-miterlimit="10" d="M572.654,1265.333c-86.791,11.286-54.594-69.12-50.395-76.173
		c4.197-7.056,0-105.798,0-105.798s-20.998-35.265-46.197-50.782"/>
	<path fill="#483700" d="M509.809,1064.785c-2.084-1.613-3.547-3.812-4.391-6.268c-0.467-0.637-0.869-1.312-1.217-2.021
		l-23.654-21.567c-1.734-0.501-3.229-1.311-4.484-2.35l-74.008,17.106l-3.496,7.36c0,0,3.666,10.241,6.406,15.972l12.129-5.871
		h93.602C510.336,1066.389,510.041,1065.602,509.809,1064.785z"/>
	<path fill="#B89369" d="M776.096,683.613c-144.273-77.84-275.197-8.051-275.197-8.051c-50.766-2.686-8.014-72.473-42.748-32.211
		s-16.033,96.631-26.719,88.579s-18.703-34.896-18.703-34.896c-58.779,112.735-18.703,166.42-18.703,166.42
		c96.186,42.947,208.402-45.63,208.402-45.63c138.932-53.688,130.92,29.525,130.92,29.525
		c2.674,53.681,66.793,107.368,66.793,107.368c22.383,26.449,36.975,70.496,46.023,108.376c6.889-2.562,13.955-4.69,21.234-6.304
		c1.566-64.309,26.26-99.391,26.26-99.391C907.016,758.769,776.096,683.613,776.096,683.613z"/>
	<path fill="#413000" d="M792.844,643.236c-165.219-88.158-315.143-9.121-315.143-9.121c-58.131-3.04-9.178-82.08-48.953-36.479
		c-39.775,45.6-18.359,109.438-30.598,100.318s-21.414-39.521-21.414-39.521c-67.314,127.68-21.42,188.479-21.42,188.479
		c110.146,48.643,238.652-51.679,238.652-51.679c159.098-60.797,149.922,33.441,149.922,33.441
		c3.061,60.797,76.486,121.599,76.486,121.599c25.633,29.959,42.342,79.842,52.705,122.745c7.887-2.901,15.982-5.314,24.318-7.14
		c1.793-72.83,30.07-112.565,30.07-112.565C942.768,728.354,792.844,643.236,792.844,643.236z"/>
	<path fill="#483700" d="M688.645,743.761c7.309-0.513,14.59-0.612,21.691-0.413c28.664,0.796,58.561,4.803,85.754,14.617
		c36.195,13.063,67.596,34.82,94.092,62.416C870.066,673.965,746.49,632.744,746.49,632.744
		c-153.18-47.025-277.902,29.043-277.902,29.043c-51.381,4.346-15.434-60.234-46.314-21.664
		c-30.875,38.572-6.314,83.8-17.895,78.383c-11.576-5.416-22.375-27.071-22.375-27.071c-47.723,102.989-1.912,143.163-1.912,143.163
		c101.211,23.785,205.191-65.74,205.191-65.74C637.115,744.377,669.002,739.961,688.645,743.761z"/>
	<path fill="#B89369" d="M846.557,994.838c-0.994-3.088-0.936-5.85-0.162-8.223c-51.955,16.291-111.969,28.344-170.73,40.852
		c-72.922,15.533-139.275,43.25-197.297,44.462l-23.801,3.478l-37.084,1.66c2.15,37.595,3.094,75.26,9.57,112.441
		c15.166,4.967,40.26,6.052,81.268-7.077c17.49-11.886,13.074-38.896,16.205-60.699c33.008,103.872,209.775,42.938,267.486-9.747
		c9.049-32.268,36.531-51.789,64.752-70.791C854.365,1025.514,851.441,1009.986,846.557,994.838z"/>
	<path d="M675.664,1016.188c-72.922,15.533-139.275,43.25-197.297,44.461l-23.801,3.479l-67.453,3.02
		c0,0-17.678,33.799,18.055,94.14c0,0,14.205,38.343,103.152,9.864c17.49-11.886,13.074-38.896,16.205-60.699
		c33.008,103.872,209.775,42.938,267.486-9.748c20.211-72.06,132.334-80.571,139.375-161.604
		C869.25,976.895,770.797,995.937,675.664,1016.188z"/>
</g>
<path fill="#8AC284" stroke="#009345" stroke-miterlimit="10" d="M1278.547,1787.483c0,6.628-5.373,12-12,12h-248.986
	c-6.627,0-12-5.372-12-12v-224.987c0-6.627,5.373-12,12-12h248.986c6.627,0,12,5.373,12,12V1787.483z"/>
<path fill="#8AC284" stroke="#009345" stroke-miterlimit="10" d="M924.563,1604.493c0,6.628,5.372,12,12,12h41.997
	c6.627,0,12-5.372,12-12v-41.997c0-6.627-5.373-12-12-12h-41.997c-6.628,0-12,5.373-12,12V1604.493z"/>
<path fill="#8AC284" stroke="#009345" stroke-miterlimit="10" d="M1291.545,1604.493c0,6.628,5.372,12,12,12h41.997
	c6.627,0,12-5.372,12-12v-41.997c0-6.627-5.373-12-12-12h-41.997c-6.628,0-12,5.373-12,12V1604.493z"/>
<g>
	<path fill="#75B96F" stroke="#009345" stroke-miterlimit="10" d="M1312.534,1591.387c21.292,19.459,46.309,33.512,71.8,46.639
		c12.614,6.497,25.29,12.873,37.686,19.783c6.011,3.352,11.925,6.873,17.74,10.552c2.927,1.852,5.803,3.779,8.659,5.737
		c1.434,0.983,2.848,1.996,4.261,3.009c-2.477-1.775,2.482,1.994,2.94,2.369c10.31,8.462,19.843,17.839,28.859,27.655
		c4.277,4.657,8.396,9.458,12.438,14.32c2.016,2.424,3.992,4.88,5.959,7.344c0.982,1.231,1.953,2.471,2.925,3.71
		c1.237,1.593,1.289,1.655,0.155,0.189c0.639,0.832,1.276,1.665,1.911,2.499c15.796,20.702,30.338,42.324,45.995,63.13
		c16.012,21.277,33.029,41.858,53.289,59.257c19.624,16.852,41.74,30.757,65.061,41.874c47.554,22.669,99.289,33.789,151.569,38.171
		c51.968,4.355,104.26,1.191,155.845-5.812c47.159-6.403,93.985-15.718,138.625-32.521c83.626-31.477,158.945-86.769,201.719-166.65
		c27.206-50.809,39.435-108.227,39.54-165.63c0.018-9.54-7.974-17.5-17.5-17.5c-9.553,0-17.482,7.961-17.5,17.5
		c-0.022,12.012-0.562,24.004-1.671,35.964c-0.259,2.79-0.566,5.575-0.89,8.358c-0.161,1.381-0.338,2.76-0.515,4.139
		c0.593-4.623-0.02,0.038-0.133,0.826c-0.846,5.852-1.875,11.675-3.024,17.475c-2.152,10.863-4.912,21.604-8.166,32.188
		c-1.529,4.972-3.212,9.896-4.987,14.784c-0.881,2.424-1.807,4.83-2.747,7.229c-0.469,1.195-0.952,2.385-1.437,3.574
		c-0.323,0.791-0.65,1.58-0.98,2.367c0.938-2.215,1.023-2.433,0.26-0.651c-8.322,19.291-18.783,37.63-30.932,54.762
		c-1.446,2.039-2.931,4.052-4.427,6.055c-0.507,0.679-3.131,4.102-0.296,0.433c-0.764,0.989-1.54,1.969-2.316,2.948
		c-3.367,4.248-6.87,8.387-10.454,12.452c-6.925,7.855-14.286,15.32-21.943,22.461c-3.704,3.454-7.505,6.801-11.361,10.083
		c-1.938,1.648-3.901,3.265-5.875,4.87c-0.989,0.805-1.987,1.599-2.986,2.393c-0.667,0.528-1.337,1.055-2.008,1.579
		c1.858-1.43,2.026-1.56,0.504-0.392c-8.547,6.546-17.425,12.654-26.513,18.423c-18.758,11.905-38.594,22.066-59.008,30.807
		c4.084-1.748-0.187,0.07-0.86,0.35c-1.267,0.524-2.538,1.037-3.81,1.551c-2.555,1.031-5.123,2.027-7.695,3.013
		c-5.627,2.155-11.304,4.179-17.008,6.122c-11.183,3.811-22.516,7.172-33.932,10.204c-22.914,6.085-46.495,10.202-69.897,13.897
		c-5.857,0.926-11.727,1.778-17.602,2.586c4.334-0.596-0.646,0.082-1.274,0.164c-1.487,0.194-2.976,0.381-4.464,0.567
		c-3.487,0.437-6.979,0.842-10.472,1.235c-12.61,1.42-25.257,2.517-37.921,3.331c-25.624,1.648-51.344,1.914-76.989,0.603
		c-12.793-0.654-25.561-1.78-38.275-3.33c-1.52-0.186-3.037-0.385-4.556-0.583c4.233,0.555-0.831-0.135-1.405-0.217
		c-3.021-0.435-6.035-0.911-9.048-1.403c-6.501-1.061-12.974-2.29-19.422-3.633c-12.298-2.56-24.468-5.717-36.474-9.404
		c-5.717-1.756-11.38-3.682-17.004-5.716c-2.802-1.014-5.584-2.08-8.359-3.165c-1.386-0.542-2.764-1.102-4.143-1.661
		c-0.917-0.375-1.832-0.754-2.746-1.138c1.899,0.801,1.927,0.806,0.082,0.015c-11.333-4.9-22.35-10.519-33.019-16.73
		c-5.122-2.983-10.13-6.159-15.058-9.45c-2.471-1.65-4.9-3.358-7.316-5.086c-1.211-0.865-2.407-1.75-3.604-2.634
		c-0.797-0.593-1.591-1.189-2.381-1.791c1.538,1.196,1.51,1.168-0.086-0.085c-10.063-7.949-19.334-16.867-28.08-26.232
		c-4.192-4.489-8.222-9.129-12.172-13.832c-1.98-2.357-3.921-4.748-5.851-7.147c-0.967-1.201-1.922-2.412-2.877-3.623
		c-0.637-0.809-1.271-1.619-1.902-2.432c1.159,1.506,1.128,1.463-0.095-0.129c-32.438-42.282-60.143-88.714-100.376-124.38
		c-22.896-20.298-49.928-34.456-76.989-48.311c-12.945-6.628-25.889-13.268-38.425-20.651c-6.175-3.636-12.2-7.517-18.071-11.623
		c-1.351-0.945-2.68-1.92-4.008-2.895c-0.883-0.653-1.761-1.313-2.633-1.981c1.373,1.051,1.258,0.944-0.346-0.319
		c-3.013-2.41-5.915-4.954-8.763-7.556c-7.035-6.43-17.779-6.97-24.748,0C1306.019,1573.153,1305.491,1584.951,1312.534,1591.387
		L1312.534,1591.387z"/>
</g>
<g>
	<path fill="#C69E71" d="M897.465,589.818c0,0,18.846,146.341,70.178,155.6c0,0,78.352,184.873,243.158,201.087
		c0,0,148.599-62.141,159.404-262.072c0,0,73.068-34.905,39.234-170.104l-39.234,21.505l-32.035-240.456l-154.386-70.246
		l-194.528,27.017l-78.35,59.44l-27.019,159.402L897.465,589.818z"/>
	<path fill="#B89369" d="M1408.843,325.601c0,0.002-23.917-16.178-54.854-39.75l-21.141-67.026l-49.281,8.81
		c-14.754-13.504-28.503-27.25-39.639-40.427c-7.76-9.182-14.253-18.085-18.946-26.431
		c-36.772-65.361-105.415-88.096-105.415-88.096l-22.061,53.994l-71.096-53.994l-24.514,48.311l-53.934,2.842l-31.869,59.678
		l-24.517,53.995l-49.028,48.312l12.258,14.207l2.453,56.836l-14.711,39.786c0,0,41.674,153.458,68.642,213.136l46.579,71.044
		c0,0-2.453-105.147-24.518-170.507c0,0-22.061-150.617,68.645-193.244c0,0,107.863,36.943,193.666-51.152
		c0,0,147.088,79.568,134.831,213.135c0,0-9.802,93.782,17.163,130.725c0,0,19.609-51.152,46.577-82.414
		c0,0-19.614-110.833,0-167.666L1408.843,325.601z"/>
	<path fill="#705D1F" d="M1237.818,891.116c0,0-27.018-47.281-27.018-74.298h-5.503c-10.45,5.51-21.434,9.976-34.016,11.578
		c7.315,23.731,21.702,75.623,7.098,74.12c-18.911-1.943-56.518,19.131-76.786,4.626c-20.27-14.501,52.472,58.272,114.611,58.272
		c0,0,73.188-38.874,86.576-93.735C1302.781,871.68,1251.326,900.57,1237.818,891.116z"/>
	<path fill="#B89369" d="M1071.121,762.717c0,0,48.438,15.87,112.537,6c0,0,55.711-11.489,88.754-50.04
		c0,0-62.309,2.797-101.773,13.498C1170.639,732.175,1116.961,738.444,1071.121,762.717z"/>
	<path fill="none" stroke="#705D1F" stroke-miterlimit="10" d="M1086.521,646.607c0,0-13.51,27.015,39.174,21.611
		c0,0,28.311,6.456,46.072-10.447c0,0,55.826-3.732,28.688-42.232"/>
	<path fill="#705D1F" d="M1171.768,467.616c0,0-18.775,16.212,0,25.331c0,0,41.064,4.052,83.617-19.251
		c0,0,21.275-14.929,52.684,6.721c0,0,23.303-4.693,0-20.905c0,0-25.803-22.288-81.053-7.092L1171.768,467.616z"/>
	<path fill="#705D1F" d="M1087.803,481.185c0,0,21.572,11.371,6.07,24.589c0,0-37.714,13.485-83.385,0.755
		c0,0-23.622-9.543-48.023,18.777c0,0-23.074,0.863-5.01-20.295c0,0,18.969-27.64,74.658-25.735L1087.803,481.185z"/>
	<path fill="#705D1F" d="M1437.75,291.381c0,0-26.359-16.177-60.456-39.751l-23.3-67.025l-54.311,8.809
		c-16.26-13.502-31.414-27.248-43.686-40.427c-8.551-9.181-15.705-18.083-20.882-26.432
		c-40.525-65.36-116.175-88.095-116.175-88.095l-24.314,53.994l-78.353-53.994l-27.019,48.312l-59.439,2.842l-35.122,59.677
		l-27.017,53.994l-54.037,48.312l13.511,14.207l2.7,56.836l-16.211,39.786c0,0,45.93,153.46,75.649,213.138l51.335,71.044
		c0,0-2.703-105.147-27.02-170.509c0,0-24.314-150.617,75.65-193.244c0,0,118.877,36.943,213.439-51.151
		c0,0,162.104,79.569,148.596,213.133c0,0-10.803,93.784,18.914,130.728c0,0,21.613-51.154,51.333-82.415
		c0,0-21.612-110.833,0-167.667L1437.75,291.381z"/>
	<path fill="#7D6930" d="M849.883,271.012c36.758,4.694,73.23,11.878,109.086,20.983c5.631-6.173,12.127-11.846,19.745-16.732
		c-27.768-15.359-52.962-36.748-78.769-54.563c-7.307-5.042-14.645-10.038-21.996-15.009l-41.52,33.741l12.424,11.876
		L849.883,271.012z"/>
	<path fill="#7D6930" d="M1174.077,237.729c9.772-37.259,30.729-69.012,51.298-100.87c-0.469-0.649-0.938-1.3-1.377-1.942
		c-37.266-54.632-106.828-73.635-106.828-73.635l-22.36,45.132l-72.049-45.132l-24.844,40.383l-54.657,2.375l-32.297,49.879
		l-16.087,29.224c3.429,2.331,6.865,4.651,10.282,6.999c22.062,15.156,43.356,31.371,65.361,46.584
		c20.447,14.136,42.403,27.695,67.702,30.131c4.31,0.414,7.583,2.367,9.833,5.06c34.426,0.759,81.725-5.173,126.007-34.114
		C1174.068,237.776,1174.07,237.755,1174.077,237.729z"/>
	<path fill="#E6E6E6" stroke="#B89369" stroke-miterlimit="10" d="M988.924,567.92c0,0,42.551-59.776,101.314-14.184
		C1090.238,553.736,1055.791,584.132,988.924,567.92z"/>
	<path fill="#1B75BB" d="M1048.917,571.989c2.912-1.897,6.544-3.056,10.927-3.056c0.115,0,0.223,0.017,0.336,0.017
		c3.357-3.833,5.428-8.81,5.428-14.314c0-6.951-3.252-13.115-8.297-17.133c-3.297-0.07-6.164-0.792-8.608-2
		c-2.565,1.276-5.601,2.023-9.122,2.023c-1.248,0-2.417-0.119-3.543-0.302c-2.576,2.181-5.869,3.696-9.891,4.176
		c-2.801,3.682-4.488,8.252-4.488,13.235c0,7.091,3.372,13.379,8.586,17.396c0.41-0.021,0.809-0.058,1.23-0.058
		c3.268,0,6.07,0.694,8.515,1.809c2.483-1.147,5.382-1.809,8.71-1.809C1048.773,571.975,1048.842,571.989,1048.917,571.989z"/>
	<path fill="none" stroke="#B89369" stroke-miterlimit="10" d="M988.924,567.92c0,0,42.551-59.776,101.314-14.184
		C1090.238,553.736,1055.791,584.132,988.924,567.92z"/>
	<path fill="#E6E6E6" stroke="#B89369" stroke-miterlimit="10" d="M1186.49,535.768c0,0,42.552-59.774,101.314-14.183
		C1287.805,521.585,1253.358,551.979,1186.49,535.768z"/>
	<path fill="#1B75BB" d="M1246.484,539.836c2.912-1.896,6.545-3.056,10.926-3.056c0.115,0,0.222,0.018,0.336,0.018
		c3.357-3.833,5.43-8.808,5.43-14.314c0-6.949-3.254-13.115-8.299-17.134c-3.297-0.068-6.164-0.791-8.607-1.999
		c-2.565,1.276-5.602,2.023-9.123,2.023c-1.248,0-2.417-0.119-3.541-0.301c-2.578,2.18-5.871,3.695-9.892,4.175
		c-2.801,3.683-4.489,8.252-4.489,13.235c0,7.091,3.372,13.381,8.586,17.396c0.41-0.019,0.809-0.06,1.231-0.06
		c3.267,0,6.069,0.697,8.517,1.811c2.48-1.147,5.379-1.811,8.707-1.811C1246.342,539.82,1246.408,539.836,1246.484,539.836z"/>
	<path fill="none" stroke="#B89369" stroke-miterlimit="10" d="M1186.49,535.768c0,0,42.552-59.774,101.314-14.183
		C1287.805,521.585,1253.358,551.979,1186.49,535.768z"/>
	<path fill="#231F20" d="M1049.037,554.753c0,2.982-2.419,5.401-5.404,5.401c-2.983,0-5.404-2.419-5.404-5.401
		c0-2.986,2.421-5.406,5.404-5.406C1046.618,549.347,1049.037,551.767,1049.037,554.753z"/>
	<path fill="#231F20" d="M1246.604,522.483c0,2.986-2.419,5.406-5.404,5.406c-2.983,0-5.404-2.42-5.404-5.406
		c0-2.982,2.421-5.402,5.404-5.402C1244.185,517.081,1246.604,519.501,1246.604,522.483z"/>
	<path fill-rule="evenodd" clip-rule="evenodd" fill="#B89369" d="M1328.985,449.58c-51.163,7.097-201.415,53.266-201.415,53.266
		s59.042-2.564-5.717,0.343c-64.752,2.906-201.716,19.072-201.716,19.072c-29.078,13.99,18.284,82.462,28.272,101.724
		c10.451,12.519,45.426,25.824,74.473,26.653c22.592,0.642,46.74-4.139,70.111-15.609c25.295-15.421,24.461-62.494,43.475-64.94
		c0.909-0.275,1.869-0.506,2.873-0.684c1.008-0.179,2.002-0.293,2.96-0.35c18.731-4.417,34.18,40.193,63.282,45.957
		c25.893,2.718,50.209-1.122,71.197-9.513c26.981-10.784,55.227-35.331,60.721-50.683
		C1340.239,533.289,1361.105,452.691,1328.985,449.58z"/>
	<polygon fill-rule="evenodd" clip-rule="evenodd" fill="#181514" points="1331.93,440.112 1388.151,440.112 1389.605,480.005 
		1331.93,509.601 	"/>
	<path fill-rule="evenodd" clip-rule="evenodd" fill="#181514" d="M914.52,525.44c-3.035-3.238-5.115-7.02-6.431-11.064
		l-31.435,9.482l10.127,38.613l63.766,11.68l-12.578-41.699C929.543,533.523,920.555,531.876,914.52,525.44z"/>
	<path fill-rule="evenodd" clip-rule="evenodd" fill="#181514" d="M1331.93,440.112c-52.842,7.396-208.162,54.465-208.162,54.465
		s60.945-2.9-5.9,0.377c-66.842,3.275-208.276,20.237-208.276,20.237c-30.089,14.17,18.4,82.441,28.598,101.667
		c10.715,12.472,46.732,25.592,76.705,26.255c23.308,0.514,48.257-4.407,72.44-16.022c26.192-15.58,25.598-62.695,45.234-65.254
		c0.941-0.28,1.932-0.516,2.967-0.7c1.043-0.185,2.07-0.305,3.059-0.367c19.356-4.528,35.044,40.04,65.045,45.644
		c26.705,2.574,51.822-1.408,73.529-9.925c27.904-10.951,57.192-35.682,62.949-51.082
		C1343.064,523.843,1365.059,443.046,1331.93,440.112z"/>
</g>
<g>
	<path fill="#75B96F" stroke="#009345" stroke-miterlimit="10" d="M948.847,1566.125c-27.947,5.674-56.067,10.438-84.322,14.3
		c3.672-0.502-1.963,0.257-2.189,0.287c-1.712,0.225-3.425,0.442-5.138,0.661c-3.431,0.436-6.863,0.852-10.298,1.262
		c-7.456,0.889-14.923,1.697-22.394,2.457c-14.426,1.467-28.878,2.663-43.345,3.644c-58.308,3.955-116.899,3.84-175.182-0.475
		c-14.606-1.081-29.188-2.468-43.742-4.103c-6.982-0.784-13.955-1.649-20.922-2.564c3.58,0.471-2.145-0.294-2.309-0.316
		c-1.739-0.239-3.478-0.487-5.216-0.734c-4.055-0.578-8.104-1.188-12.153-1.812c-28.86-4.442-57.531-10.11-85.923-16.935
		c-28.279-6.798-56.245-14.891-83.797-24.201c-13.737-4.642-27.35-9.644-40.849-14.937c-6.472-2.537-12.907-5.169-19.317-7.858
		c-0.327-0.138-5.46-2.314-1.582-0.666c-1.377-0.585-2.749-1.182-4.122-1.778c-3.17-1.379-6.322-2.803-9.464-4.245
		c-21.271-9.76-41.833-21.071-61.39-33.927c-4.434-2.915-8.798-5.935-13.115-9.018c-2.125-1.519-4.229-3.067-6.323-4.626
		c-1.04-0.774-2.071-1.558-3.103-2.342c-1.527-1.171-1.368-1.046,0.478,0.376c-0.675-0.526-1.349-1.054-2.021-1.584
		c-8.229-6.472-16.156-13.32-23.801-20.471c-7.358-6.882-14.383-14.118-21.098-21.628c-3.141-3.512-6.186-7.109-9.169-10.756
		c-1.474-1.803-2.918-3.629-4.352-5.463c2.998,3.835,0.499,0.63-0.079-0.131c-0.927-1.224-1.837-2.459-2.746-3.696
		c-11.034-15.029-20.588-31.132-28.523-48.001c-0.928-1.973-1.821-3.962-2.702-5.957c-0.439-0.994-0.866-1.993-1.293-2.992
		c2.029,4.746,0.501,1.158,0.1,0.177c-1.768-4.324-3.397-8.704-4.937-13.114c-2.933-8.4-5.393-16.961-7.465-25.612
		c-0.987-4.125-1.85-8.279-2.636-12.446c-0.392-2.08-0.747-4.167-1.088-6.255c-0.25-1.532-1.376-9.764-0.587-3.717
		c-1.139-8.729-1.782-17.521-2.036-26.319c-0.255-8.83-0.011-17.671,0.616-26.481c0.303-4.253,0.732-8.497,1.236-12.731
		c0.135-1.136,0.653-5.013-0.078,0.408c0.144-1.062,0.299-2.121,0.455-3.182c0.364-2.479,0.777-4.952,1.209-7.421
		c3.144-17.974,8.171-35.594,14.645-52.644c0.794-2.093,1.624-4.173,2.464-6.247c0.383-0.944,1.932-4.635-0.037,0.027
		c0.439-1.039,0.889-2.073,1.339-3.108c1.814-4.168,3.742-8.286,5.734-12.373c4.234-8.682,8.906-17.146,13.885-25.422
		c5.126-8.521,10.669-16.788,16.499-24.843c1.426-1.971,2.882-3.92,4.348-5.862c0.528-0.7,3.123-4.053,0.246-0.343
		c0.754-0.972,1.517-1.937,2.28-2.901c3.343-4.224,6.797-8.36,10.314-12.439c14.148-16.41,29.722-31.564,46.216-45.602
		c4.145-3.527,8.368-6.962,12.635-10.341c1.079-0.854,2.165-1.699,3.251-2.545c-3.385,2.634,0.32-0.227,0.852-0.631
		c2.594-1.97,5.215-3.902,7.848-5.82c9.644-7.026,19.57-13.66,29.679-19.998c8.067-5.057,11.212-15.521,6.278-23.943
		c-4.706-8.033-15.854-11.349-23.943-6.277c-74.622,46.78-138.201,111.731-171.595,194.157
		c-27.863,68.773-28.837,147.68-0.134,216.335c33.244,79.516,98.784,139.343,174.421,178.423
		c49.937,25.801,104.171,44.519,158.281,59.347c57.303,15.702,116.011,25.969,175.079,32.144
		c116.63,12.191,234.892,6.363,350.307-13.77c11.74-2.047,23.447-4.279,35.126-6.65c9.353-1.898,14.619-12.812,12.223-21.527
		C967.717,1568.688,958.187,1564.229,948.847,1566.125L948.847,1566.125z"/>
</g>
<path fill="#66B360" stroke="#009345" stroke-miterlimit="10" d="M1210.722,1708.652l-58.521-99.436
	c-1.264-2.146-3.598-3.467-6.124-3.467s-4.861,1.321-6.123,3.467l-58.522,99.436c-1.263,2.145-1.263,4.786,0.001,6.929
	c1.264,2.146,3.597,3.466,6.122,3.466h0.078h116.966c2.525,0,4.858-1.32,6.122-3.466
	C1211.984,1713.438,1211.984,1710.797,1210.722,1708.652z"/>
<path fill="#75B96F" stroke="#009345" stroke-miterlimit="10" d="M357.571,994.926c-1.129-2.26-3.355-3.758-5.838-3.928
	l-57.43-3.952c0.141,8.719,2.147,17.152,4.006,25.678c0.995,4.563,1.829,9.128,2.542,13.743c0.599,3.874,1.21,8.243,4.077,11.212
	c5.07,5.25,11.961,7.277,17.946,11.111c0.662,0.425,1.268,0.88,1.856,1.346c0.371,0.055,0.717,0.144,1.037,0.266l31.438-48.447
	C358.561,999.864,358.7,997.187,357.571,994.926z"/>
<path fill="#75B96F" stroke="#009345" stroke-miterlimit="10" d="M319.071,856.244c-1.129-2.26-3.355-3.758-5.838-3.928
	l-44.875-3.088c-2.342,8.938-8.771,17.188-14.165,24.085c-7.681,9.822-14.827,20.171-24.462,28.225
	c-3.439,2.874-7.013,5.521-10.672,8.028l24.805,49.659c1.129,2.259,3.353,3.757,5.837,3.928c2.481,0.174,4.844-1.007,6.198-3.095
	l62.807-96.786C320.061,861.183,320.2,858.505,319.071,856.244z"/>
<path fill="#8AC284" stroke="#009345" stroke-miterlimit="10" d="M202.529,977.459c15.476,53.861,70.31,85.736,124.286,73.38
	L268.9,849.288C216.599,867.469,187.049,923.594,202.529,977.459z"/>
<path fill="#75B96F" stroke="#009345" stroke-miterlimit="10" d="M2396.288,1456.444c-2.438,0.666-4.342,2.554-4.995,4.956
	l-15.126,55.543c8.578,1.568,17.24,1.254,25.965,1.102c4.67-0.082,9.31-0.006,13.975,0.199c3.917,0.171,8.321,0.428,11.794-1.803
	c6.142-3.943,9.479-10.304,14.411-15.421c0.547-0.565,1.111-1.071,1.684-1.557c0.127-0.354,0.281-0.675,0.464-0.964l-41.35-40.321
	C2401.325,1456.442,2398.727,1455.78,2396.288,1456.444z"/>
<path fill="#75B96F" stroke="#009345" stroke-miterlimit="10" d="M2252.752,1467.031c-2.438,0.665-4.343,2.554-4.995,4.955
	l-11.819,43.399c8.307,4.048,15.136,11.969,20.843,18.609c8.128,9.456,16.876,18.491,22.887,29.517
	c2.145,3.937,4.04,7.96,5.781,12.038l53.557-14.596c2.436-0.664,4.341-2.553,4.995-4.954c0.656-2.399-0.038-4.948-1.82-6.685
	l-82.607-80.55C2257.788,1467.028,2255.189,1466.367,2252.752,1467.031z"/>
<path fill="#8AC284" stroke="#009345" stroke-miterlimit="10" d="M2348.787,1605.062c55.85-4.624,97.849-52.151,96.306-107.502
	l-208.99,17.308C2243.685,1569.718,2292.933,1609.689,2348.787,1605.062z"/>
</svg>
